HIERARCHY
ROOT hip
{
	OFFSET 0.000000 0.000000 0.000000 
	CHANNELS 6 Xposition Yposition Zposition Xrotation Zrotation Yrotation
	JOINT abdomen
	{
		OFFSET 0.000000 3.402643 0.000000 
		CHANNELS 3 Xrotation Zrotation Yrotation
		JOINT chest
		{
			OFFSET 0.000000 8.438565 -0.680529 
			CHANNELS 3 Xrotation Zrotation Yrotation
			JOINT neck
			{
				OFFSET 0.000000 10.207942 -0.272212 
				CHANNELS 3 Xrotation Zrotation Yrotation
				JOINT head
				{
					OFFSET 0.000000 3.130431 0.000000 
					CHANNELS 3 Xrotation Zrotation Yrotation
					End Site
					{
						OFFSET 0.000000 3.130435 0.000000 
					}
				}
			}
			JOINT lCollar
			{
				OFFSET 3.470700 6.669187 -0.816635 
				CHANNELS 3 Yrotation Zrotation Xrotation
				JOINT lShldr
				{
					OFFSET 3.198488 0.000000 0.000000 
					CHANNELS 3 Zrotation Yrotation Xrotation
					JOINT lForeArm
					{
						OFFSET 10.139888 0.000000 0.000000 
						CHANNELS 3 Yrotation Zrotation Xrotation
						JOINT lHand
						{
							OFFSET 8.370511 0.000000 0.000000 
							CHANNELS 3 Zrotation Yrotation Xrotation
							End Site
							{
								OFFSET 4.083176 0.000000 0.000000 
							}
						}
					}
				}
			}
			JOINT rCollar
			{
				OFFSET -3.470700 6.669187 -0.816635 
				CHANNELS 3 Yrotation Zrotation Xrotation
				JOINT rShldr
				{
					OFFSET -3.198488 0.000000 0.000000 
					CHANNELS 3 Zrotation Yrotation Xrotation
					JOINT rForeArm
					{
						OFFSET -10.139888 0.000000 0.000000 
						CHANNELS 3 Yrotation Zrotation Xrotation
						JOINT rHand
						{
							OFFSET -8.370511 0.000000 0.000000 
							CHANNELS 3 Zrotation Yrotation Xrotation
							End Site
							{
								OFFSET -4.083176 0.000000 0.000000 
							}
						}
					}
				}
			}
		}
	}
	JOINT lThigh
	{
		OFFSET 5.308129 -1.633274 1.361059 
		CHANNELS 3 Xrotation Zrotation Yrotation
		JOINT lShin
		{
			OFFSET -2.041588 -20.007561 0.000000 
			CHANNELS 3 Xrotation Zrotation Yrotation
			JOINT lFoot
			{
				OFFSET 0.000000 -19.190928 -1.224953 
				CHANNELS 3 Xrotation Yrotation Zrotation
				End Site
				{
					OFFSET 0.000000 -2.449906 4.627600 
				}
			}
		}
	}
	JOINT rThigh
	{
		OFFSET -5.308129 -1.633274 1.361059 
		CHANNELS 3 Xrotation Zrotation Yrotation
		JOINT rShin
		{
			OFFSET 2.041588 -20.007561 0.000000 
			CHANNELS 3 Xrotation Zrotation Yrotation
			JOINT rFoot
			{
				OFFSET 0.000000 -19.190928 -1.224953 
				CHANNELS 3 Xrotation Yrotation Zrotation
				End Site
				{
					OFFSET 0.000000 -2.449906 4.627600 
				}
			}
		}
	}
}
MOTION
Frames: 10
Frame Time: 0.033333
-25.489267 43.528172 41.595284 2.419996 -3.235295 -88.550423 0.000000 0.000000 0.000000 2.836589 -1.051391 4.531919 4.965124 -0.429033 -3.164193 16.463434 7.316803 -7.709462 1.478629 -1.836665 3.106353 -53.110050 13.257854 -11.894523 -48.093040 1.529215 28.077143 -3.797719 -4.755226 -3.109915 8.385633 4.675221 3.060968 26.836504 -13.559184 5.216938 37.928612 2.850130 10.012522 -2.695394 4.268451 -3.573301 -29.056742 0.312220 2.685785 57.612289 2.341449 27.677757 -23.300663 1.615883 -7.765660 -9.674008 -10.717703 -5.613696 65.331123 -1.581952 15.936940 -21.669865 0.059054 0.002545 
-24.423969 43.290630 41.593250 1.612762 -2.944393 -89.296303 0.000000 0.000000 0.000000 3.005955 -1.128434 5.040006 5.055927 -0.946140 -2.793394 17.080561 8.082942 -8.136723 1.929709 -2.286813 3.253101 -52.637199 12.344402 -11.496643 -49.542828 1.295884 24.967003 -2.923563 -3.221814 -3.243559 8.857157 4.072849 3.229017 27.342215 -12.652938 5.587897 38.305603 2.919210 10.538907 -2.768567 4.352294 -3.572490 -31.132996 -0.175553 2.975063 57.981716 1.840980 28.286612 -22.022379 1.382517 -6.957549 -7.410811 -11.403412 -6.665137 66.862808 -1.620435 16.274799 -18.370096 0.269035 -1.469440 
-23.275331 43.093906 41.613590 0.845372 -2.866098 -89.830856 0.000000 0.000000 0.000000 3.399332 -1.167024 5.215748 5.313478 -1.141024 -2.989049 17.758253 8.334373 -8.596546 2.013815 -2.476953 3.576019 -52.490952 11.368418 -11.323427 -50.233498 1.353344 25.882303 -1.317449 -3.716403 -3.317407 8.941457 4.112582 3.566224 27.206553 -11.098676 5.658703 38.198071 3.068110 10.652269 -2.642236 4.359745 -3.572572 -32.952793 -0.712604 3.216356 57.935345 1.390373 28.660639 -20.507748 1.098403 -5.887936 -4.462774 -12.254659 -8.093773 67.030884 -1.552805 15.996238 -15.182682 0.245890 -1.649350 
-22.054274 42.885891 41.624836 0.269705 -2.554069 -90.270813 0.000000 0.000000 0.000000 3.585544 -1.205405 5.479560 5.418066 -0.955348 -3.398942 18.541988 7.620860 -9.005591 2.195977 -1.999360 3.749903 -53.141796 9.941286 -10.879048 -50.601288 1.383280 26.758814 -1.145687 -3.804246 -3.325833 8.975133 4.640433 3.731866 26.549173 -9.291241 5.311626 37.624542 3.324113 10.956333 -2.708683 4.805713 -3.587029 -35.137508 -1.094038 3.508363 57.852345 0.937575 29.121693 -18.824314 0.771302 -4.455129 -1.787475 -13.088581 -9.132106 66.266891 -1.633000 15.654037 -13.373828 0.166924 -1.039110 
-20.764797 42.653366 41.565102 -0.602750 -2.175231 -91.172195 0.000000 0.000000 0.000000 3.607559 -1.000533 5.899240 5.607667 -1.208881 -3.340748 18.986685 7.985498 -9.525784 2.164493 -1.972409 3.740220 -53.483364 8.628985 -10.201944 -51.086056 1.275303 26.372969 -1.348349 -2.857417 -3.328197 9.575588 4.444571 3.724827 26.408451 -8.336571 5.390064 37.759903 3.436033 10.802557 -2.963526 4.643129 -3.601451 -37.500317 -0.957161 3.933907 57.784794 0.333090 29.247566 -17.116869 0.469204 -2.727092 0.554847 -13.419091 -9.300508 64.884636 -1.924362 15.715594 -13.500315 0.183002 -1.096603 
-19.415648 42.428871 41.514320 -1.119056 -2.302588 -92.142342 0.000000 0.000000 0.000000 3.952085 -0.767208 6.035660 6.326846 -1.501411 -3.301950 18.177704 8.599927 -9.995461 1.860004 -2.649768 4.016508 -52.954544 7.411875 -9.479115 -51.418011 1.102441 25.692387 -1.934818 -3.047731 -3.293079 10.443357 4.840016 3.956734 25.494709 -7.337089 5.134596 37.768242 3.570217 10.612923 -2.902514 4.441240 -3.597059 -39.299301 -0.908104 4.428060 57.410507 -0.153787 29.681129 -15.173038 0.111333 -0.764934 3.337331 -13.930657 -9.347153 62.637642 -2.383034 16.231052 -16.860395 0.202348 -1.082090 
-17.965702 42.206306 41.449890 -1.708019 -2.825355 -92.810951 0.000000 0.000000 0.000000 4.769506 -0.611846 6.015906 6.703298 -1.452169 -3.624356 18.961588 8.717272 -10.285616 1.802213 -2.241955 4.728490 -53.194633 5.498886 -7.999231 -51.171993 0.955599 26.186010 -1.842886 -3.443594 -3.293882 10.229491 4.817410 4.652404 25.316986 -5.243352 4.870070 37.396584 3.669770 10.960231 -3.021604 4.306709 -3.600043 -40.935986 -0.995626 4.728191 56.891960 -0.534198 29.780291 -12.922328 -0.218917 2.179073 6.268608 -14.375030 -9.112181 59.231018 -2.885745 17.937250 -24.002068 0.554955 -2.426114 
-16.355614 41.915970 41.360161 -1.828639 -3.183118 -93.073853 0.000000 0.000000 0.000000 5.561554 -0.048586 5.703123 7.115542 -1.198211 -4.024395 19.098021 8.911537 -10.558030 1.535253 -1.600204 5.430454 -53.294033 3.432207 -6.352464 -51.154819 0.731291 26.154968 -1.705638 -2.937092 -3.318449 9.765079 5.127347 5.287992 24.795280 -3.402579 4.709848 37.489159 3.677262 11.344230 -3.245783 4.282838 -3.616377 -42.679535 -1.094072 4.318606 55.955742 -0.531472 30.315620 -10.047640 -0.342018 4.167269 8.382632 -14.260246 -8.598651 55.060883 -3.085902 19.456345 -33.098900 1.043691 -3.277041 
-14.665184 41.649734 41.242676 -2.047262 -3.863089 -93.578438 0.000000 0.000000 0.000000 6.568318 0.369429 5.429827 7.925235 -0.973780 -4.326873 18.620163 8.724682 -10.710883 0.955648 -1.171057 6.348362 -53.462109 1.513274 -5.714062 -50.713535 0.682688 27.178843 -1.261804 -3.830528 -3.317546 9.680243 5.631633 6.121659 23.868631 -1.725120 4.566087 37.530491 3.785509 11.374580 -3.562716 4.174874 -3.634618 -43.601189 -0.800772 3.836708 54.168964 -0.827696 30.561043 -6.318696 -0.227685 4.752492 9.754003 -14.411838 -8.613602 51.204170 -3.221003 18.551781 -41.069942 0.481241 -1.135368 
-12.887150 41.475609 41.031590 -2.579691 -4.762734 -93.483795 0.000000 0.000000 0.000000 7.731306 0.321197 4.668059 8.807627 -0.885316 -4.981080 18.758327 8.728578 -10.572838 0.060139 -0.986863 7.452420 -53.608360 -0.239588 -5.590072 -50.844036 0.691621 27.765627 -1.910695 -3.457262 -3.289417 9.109503 6.292656 7.192260 22.519701 0.268286 4.739435 37.672161 3.972238 11.909804 -3.722999 3.753880 -3.631577 -43.780899 -0.596277 3.316914 51.384628 -1.194286 30.638397 -2.038448 -0.072911 4.387097 11.323710 -14.332423 -10.170083 47.245308 -2.600534 13.463625 -47.550270 -1.444896 3.367607 
